# xmcd
#
# Track frame offsets: 
#        150
#        17066
#        31935
#        45178
#        67372
#        84170
#        106968
#        132233
#        148751
#        167689
#        186796
#        219036
#
# Disc length: 3120 seconds
#
# Revision: 2
# Processed by: cddbd v1.5.1PL0 Copyright (c) Steve Scherf et al.
# Submitted via: ExactAudioCopy v0.95a5
#
DISCID=9a0c2e0c
DTITLE=Walt Wilkins - Mustang Island
DYEAR=2004
DGENRE=Country
TTITLE0=I Chose This Road
TTITLE1=Grand Ennui
TTITLE2=We've All Got Our Reasons
TTITLE3=Someone Somewhere Tonight
TTITLE4=Wrapped
TTITLE5=Long Winter
TTITLE6=When There's No Money Comin' In
TTITLE7=If It Weren't For You
TTITLE8=Privileges Of Youth
TTITLE9=One Way Rider
TTITLE10=Tonight I Might
TTITLE11=(Uncredited)
EXTD=
EXTT0=
EXTT1=
EXTT2=
EXTT3=
EXTT4=
EXTT5=
EXTT6=
EXTT7=
EXTT8=
EXTT9=
EXTT10=
EXTT11=
PLAYORDER=
